<?xml version="1.0" standalone="no"?>
<!DOCTYPE svg PUBLIC "-//W3C//DTD SVG 20010904//EN"
 "http://www.w3.org/TR/2001/REC-SVG-20010904/DTD/svg10.dtd">
<svg version="1.0" xmlns="http://www.w3.org/2000/svg"
 width="85.000000pt" height="85.000000pt" viewBox="0 0 85.000000 85.000000"
 preserveAspectRatio="xMidYMid meet">

<g transform="translate(0.000000,85.000000) scale(0.100000,-0.100000)"
fill="#000000" stroke="none">
<path d="M439 780 c-9 -13 -33 -24 -68 -30 -144 -27 -247 -137 -259 -276 -6
-80 11 -149 52 -210 l33 -49 -19 -55 c-30 -89 -6 -112 32 -30 13 28 27 50 32
50 5 0 28 -10 51 -21 80 -42 181 -36 300 16 12 5 17 3 17 -9 0 -9 7 -16 15
-16 18 0 18 5 5 29 -7 14 -2 25 26 52 63 60 79 101 79 209 0 80 -4 102 -23
140 -45 86 -127 149 -219 168 -30 7 -38 13 -37 30 1 27 0 27 -17 2z m-73 -142
c-14 -29 -50 -117 -82 -195 -31 -79 -60 -143 -64 -143 -4 0 -18 23 -30 52 -52
121 5 261 130 317 68 31 73 28 46 -31z m168 32 c44 -16 103 -78 126 -132 30
-70 24 -156 -15 -217 -32 -52 -41 -47 -61 40 -13 55 -74 262 -91 304 -6 17 6
19 41 5z m-94 -7 c0 -5 7 -29 14 -54 l14 -47 -38 0 -39 -1 15 47 c7 26 14 50
14 55 0 4 5 7 10 7 6 0 10 -3 10 -7z m33 -155 c16 -12 61 -127 53 -135 -2 -2
-15 1 -30 7 -15 5 -46 10 -70 10 -50 0 -66 13 -66 55 0 56 70 94 113 63z m-43
-175 c74 -7 124 -36 128 -76 3 -24 -2 -30 -35 -43 -51 -22 -176 -15 -218 11
-17 11 -31 19 -32 20 -3 1 36 105 43 117 3 4 16 1 29 -8 13 -9 52 -18 85 -21z"/>
<path d="M334 106 c-8 -20 10 -66 26 -66 14 0 12 23 -5 56 -12 24 -15 25 -21
10z"/>
<path d="M452 108 c-8 -8 -7 -18 4 -39 8 -16 19 -29 24 -29 13 0 13 12 -3 49
-10 23 -16 28 -25 19z"/>
<path d="M277 98 c-7 -20 11 -58 28 -58 19 0 19 4 0 40 -17 33 -21 36 -28 18z"/>
<path d="M397 97 c-7 -19 11 -57 27 -57 12 0 13 5 4 30 -12 35 -24 45 -31 27z"/>
</g>
</svg>
